<svg width="64" height="21" viewBox="0 0 64 21" fill="none" xmlns="http://www.w3.org/2000/svg">
<path d="M24.6057 17.8213C22.226 16.3258 18.9964 16.0633 13.788 17.4731C8.23546 18.746 6.38417 19.562 3.9529 17.9239C3.01886 17.1192 2.68399 15.8236 2.93405 13.9573C3.51402 10.915 5.08136 7.98717 7.86533 4.73954C9.41932 3.05014 10.8608 1.60032 12.7642 1.01813C14.2229 0.652904 14.0866 1.77135 13.91 1.9313C13.7238 1.9313 13.4109 1.95993 13.1691 2.11388C12.9728 2.26237 12.4341 2.74185 12.4051 3.38682C12.3634 4.37416 13.4108 4.16866 13.8626 3.62656C14.3495 3.01567 15.0691 1.84583 14.5031 0.755538C14.2658 0.367463 13.8558 0.0992585 13.3469 0.0079331C11.604 -0.0892415 9.98075 0.721301 8.48272 1.6174C5.20655 3.83767 2.58582 6.91419 1.1029 10.2818C0.247922 12.3136 -0.525274 15.2242 0.633721 17.5931C1.53027 19.2368 3.39163 20.1099 5.61233 19.9273C7.16984 19.7677 9.05319 19.2766 10.3199 18.9801C11.5865 18.6831 18.0705 16.5087 20.201 20.2931C20.201 20.2931 20.9094 18.9514 22.6799 18.9228C24.1355 18.7918 26.2353 19.3339 27.7645 20.4296C27.255 19.6821 25.8107 18.5805 24.6057 17.8213Z" fill="white"/>
<path d="M14.448 5.12052C13.2352 4.3443 10.7978 5.82828 8.84555 8.37377C7.0603 10.6571 6.28942 13.3108 7.12833 14.538C8.3763 15.9819 10.693 13.8816 11.6782 12.7574L11.8053 12.626C12.4753 11.9239 12.9929 11.0791 13.4939 10.2686C13.4939 10.2686 13.9544 9.5266 13.9764 9.49229C14.261 9.44113 14.6038 9.36119 14.99 9.25271C14.9845 9.26971 13.5122 11.6841 13.6624 12.8825C13.7091 13.2481 13.6734 14.5837 15.01 14.9888C16.7914 15.2801 18.2139 13.9329 19.4689 12.7343C19.4689 12.7343 19.6827 12.5347 19.8036 12.4208C19.773 12.5403 19.7331 12.6998 19.7331 12.6998C19.2116 14.4693 19.9146 14.8405 20.3544 14.9775C21.6834 15.3544 23.2711 13.4708 23.2762 13.4708C23.2351 14.0641 23.1147 14.555 23.7558 14.9488C24.361 15.1602 24.9734 14.838 25.4389 14.5355C27.1157 13.3825 28.4665 11.5781 29.5577 10.0183H28.8617C28.8535 10.0183 27.1443 12.4351 26.0345 12.9603C26.0327 12.9603 25.8308 13.0615 25.7144 12.9815C25.5703 12.8615 25.6272 12.6122 25.7161 12.4357C25.7217 12.4241 30.0013 5.18299 30.0013 5.18299H27.9807C27.9807 5.18299 27.7599 5.53137 27.7419 5.55422C27.7284 5.54284 27.696 5.48294 27.6735 5.45424C26.4216 3.76484 23.5867 6.36344 21.4523 9.37694C20.6306 10.5357 19.5844 11.8404 18.4996 12.7821C18.4996 12.7821 16.8925 14.2193 16.2058 13.1867C15.9548 12.7529 16.032 12.1186 16.1736 11.702C16.9731 9.48176 18.3507 7.46675 19.9184 6.2509C20.3609 5.91438 20.8419 5.81705 21.0806 5.95977C21.3081 6.09126 21.3448 6.41632 21.2009 6.63897C20.8358 6.62759 20.5433 6.73584 20.3054 6.97558C19.837 7.45505 19.6742 7.91745 19.8232 8.35131C20.5467 9.35581 21.9897 7.3695 21.9199 6.1595C21.895 5.72564 21.6577 5.3148 21.3037 5.11483C20.776 4.80677 19.971 4.88656 19.45 5.13214C18.7526 5.38889 17.6486 6.2849 17.0042 6.98135C16.1929 7.85475 14.8016 8.82493 14.3665 8.7163C14.509 8.34515 15.6843 5.99939 14.448 5.12052ZM24.1897 8.59073C24.5828 8.06002 25.7269 6.63874 26.0058 6.39908C26.9438 5.594 27.3187 5.94822 27.3512 6.19919C26.4757 7.7288 25.4425 9.48114 24.4711 11.0565C24.473 11.0509 24.167 11.5074 24.167 11.5074C23.738 12.1465 23.306 12.6944 22.6013 13.0768C22.5008 13.1055 22.3352 13.117 22.2249 13.0368C22.0922 12.9512 22.0399 12.8085 22.0548 12.66C22.097 12.1693 22.6092 10.6684 24.1897 8.59073ZM13.1973 9.5096C13.1973 9.5096 13.1798 9.56115 13.171 9.578C13.1688 9.578 12.2901 10.9762 12.2901 10.9762C11.7598 11.6669 11.0976 12.5347 10.2699 12.9512C10.0245 13.0311 9.68542 13.0826 9.51259 12.8716C9.14622 12.4434 9.33504 11.8498 9.48845 11.3704L9.54273 11.1992C9.98257 10.0349 10.6805 9.00735 11.3597 8.05417C11.3682 8.04855 11.3872 8.04286 11.3941 8.04286C11.3957 8.04855 11.3984 8.04855 11.3996 8.06002C11.8259 8.85894 12.6251 9.22978 13.2228 9.40128C13.2264 9.40128 13.2303 9.40697 13.2303 9.41843C13.2304 9.43543 13.2206 9.45844 13.1973 9.5096ZM14.0299 7.86029C14.026 7.87167 13.6385 8.73915 13.6385 8.73915C13.5824 8.78477 13.4938 8.762 13.3923 8.73915L13.2184 8.71045C12.6721 8.54503 12.2601 8.19112 12.1331 7.7688C11.9578 6.94688 12.6776 6.30191 12.9947 6.06802C13.2989 5.86236 13.772 5.75395 14.0466 5.96523C14.216 6.15934 14.2802 6.41039 14.2802 6.68452C14.2803 7.05544 14.163 7.47206 14.0299 7.86029Z" fill="white"/>
<path d="M39.574 10.5081C39.3792 10.0973 38.9167 9.83469 38.4237 9.86316C36.8231 10.006 35.2574 11.2901 34.4354 13.1336C34.004 14.0811 33.7686 14.863 33.6142 16.1072C34.1119 15.548 35.1272 14.6292 36.2793 14.1268C36.2793 14.1268 36.4361 12.934 37.2355 11.8723C37.538 11.4327 38.1434 10.725 38.8231 10.9133C39.417 11.1075 39.2083 12.7113 38.4189 14.2635C37.8349 15.4052 36.9411 16.547 36.0368 17.3344C35.2373 17.9966 34.0544 18.7956 33.0195 18.1792C32.3677 17.8027 32.0352 17.0148 32.1055 15.9989C32.4169 13.1166 33.7618 10.6623 35.6864 7.86562C37.6709 5.26866 39.8584 2.60322 42.8053 1.18179C43.4064 0.885038 43.963 0.816564 44.4442 0.999214C44.4442 0.999214 41.6779 2.48319 40.3592 5.22865C40.0238 5.92509 39.5572 6.86658 40.0271 7.69997C40.2726 8.13367 40.7085 8.16798 41.0594 8.14513C42.6758 7.77975 43.72 6.30724 44.5733 4.96037C45.0679 3.93871 45.5076 2.92274 45.5076 1.7926C45.5076 1.65565 45.5003 1.47308 45.4884 1.33597C46.2607 0.936589 47.8442 1.64419 47.8442 1.64419C49.0816 2.04388 51.7164 4.01311 52.6052 4.38964C53.0387 3.89885 53.7511 3.15694 54.1523 2.78587L53.5716 2.43765C52.6419 1.884 51.6591 1.35882 50.6918 0.839492C48.4951 -0.330424 46.7071 0.0804232 45.797 0.400101C45.4394 0.525586 45.1125 0.634069 45.1125 0.634069C44.4371 -0.08507 43.3295 -0.0167514 42.5134 0.177442C39.5784 0.999292 36.8534 3.0026 33.932 6.47866C31.7841 9.20126 30.4518 11.5529 29.7417 13.8758C29.1943 15.4395 29.0279 17.7398 30.3639 19.1039C31.4998 20.2622 33.006 20.0114 34.0696 19.5948C36.3741 18.4875 38.4453 16.1016 39.4774 13.3562C39.7264 12.5401 40.0028 11.3872 39.574 10.5081ZM44.873 1.90685C44.568 5.32005 41.8485 7.3236 41.1756 7.48316C40.7678 7.56294 40.072 7.38614 40.6931 5.95371C41.6079 4.02434 43.1696 2.38641 44.8453 1.54732C44.8861 1.69004 44.885 1.78113 44.873 1.90685Z" fill="white"/>
<path d="M61.0061 2.34195C59.5432 3.15257 58.0268 3.67752 56.1911 3.49495C55.6823 4.05444 55.187 4.63086 54.7305 5.22436C57.3069 5.86363 60.0384 4.44244 61.5617 3.08987C63.1731 1.72568 63.9995 0.0078125 63.9995 0.0078125C63.9995 0.0078125 62.7916 1.35469 61.0061 2.34195Z" fill="white"/>
<path d="M32.2779 6.89545L33.3607 5.17969H31.4418L30.3594 6.89545H32.2779Z" fill="white"/>
<path d="M56.185 17.9801C55.9787 18.117 55.6888 18.0117 55.7972 17.6979C56.0672 16.8988 57.1405 15.2704 57.1405 15.2704L60.13 10.0977H58.0822C57.9849 10.2537 57.7767 10.6119 57.7767 10.6119C57.682 10.4579 57.3987 10.1156 57.282 10.0416C56.7818 9.73318 56.0477 9.87902 55.5414 10.1586C53.3399 11.4145 51.7336 13.8957 50.4668 15.8307C50.4668 15.8307 49.1333 17.9816 48.3931 18.1416C47.8152 18.1873 47.8748 17.4278 47.8998 17.2509C48.1233 15.9722 48.6422 14.7565 49.165 13.6549C50.2283 12.9358 51.4418 11.9941 52.5446 10.961C54.9379 8.72914 56.9556 6.20065 57.2505 5.63562C57.2505 5.63562 56.9313 5.69848 56.5543 5.70979C54.7131 8.21543 50.9453 11.8571 49.803 12.3992C50.309 11.2118 53.5784 5.54422 56.3606 2.83316L56.7985 2.42208C57.4754 1.7771 58.1769 1.11505 58.7236 1.00657C58.7813 1.00088 58.8556 1.00657 58.9198 1.13806C58.9442 1.64023 58.7526 2.01131 58.5327 2.43362L58.2246 3.05012C58.2246 3.05012 58.661 2.97018 58.9476 2.87862C59.2802 2.2682 59.6485 1.58307 59.5127 0.767066C59.4674 0.504476 59.2726 0.304745 59.018 0.259044C58.188 0.104937 57.2835 0.70405 56.5557 1.18938L56.5263 1.20638C52.7849 4.06593 49.6256 8.18688 46.8636 13.8147C46.6634 13.9628 45.8899 14.14 45.7584 14.0542C46.0312 13.5065 46.3746 12.77 46.5465 11.9709C46.5762 11.7426 46.6039 11.5087 46.6039 11.2804C46.6039 10.7892 46.483 10.327 46.0319 10.0075C45.503 9.75057 44.8493 9.87052 44.4086 10.0645C42.4342 10.8636 40.9586 12.8386 39.8938 14.465C39.3211 15.4984 38.75 16.6051 38.5919 17.8724C38.4805 18.8654 38.7073 19.5047 39.286 19.8244C39.8811 20.121 40.6302 19.8127 40.9244 19.6645C42.9247 18.6371 44.3222 16.5768 45.4239 14.6931C45.4677 14.6875 46.0692 14.6705 46.5241 14.5562C46.5302 14.5562 46.5328 14.5562 46.5428 14.5622C46.5168 14.6474 46.2817 15.3326 46.2817 15.3326C45.5835 17.3301 45.2606 18.6887 45.9201 19.4933C46.8625 20.6292 48.4227 19.4535 49.692 17.9008C49.4195 19.7614 50.408 20.0526 51.1615 19.9101C52.027 19.6819 52.9915 18.7799 53.4391 18.3177C53.2954 18.8598 53.3344 19.8302 54.1218 19.9272C54.6615 20.0245 55.0653 19.7381 55.5327 19.4926C57.209 18.6021 59.2156 15.6349 59.7366 14.777H59.0535C58.3129 15.8689 57.3705 17.3006 56.185 17.9801ZM41.1385 17.7814C41.0322 17.6272 40.997 17.4587 40.9934 17.2765C40.973 16.1574 42.2073 14.1531 43.0785 13.0613C43.0803 13.0613 43.0803 13.0613 43.0803 13.0613C43.4454 13.8412 44.2722 14.3425 44.7712 14.5538C44.1514 15.9009 42.0255 18.7859 41.1385 17.7814ZM45.1211 13.9515C45.062 13.9917 44.0195 13.6491 43.818 12.7074C43.6471 11.8966 44.2194 11.2631 44.7731 10.9437C45.0107 10.761 45.3687 10.6984 45.6313 10.7893C45.8751 10.9493 45.9411 11.2349 45.9411 11.5427C45.9411 11.7314 45.9154 11.9253 45.8928 12.1022C45.8928 12.1022 45.8885 12.1366 45.8878 12.1423C45.7141 12.7756 45.4483 13.3978 45.1211 13.9515ZM53.4827 17.4218C53.4818 17.4218 53.2849 17.593 53.2849 17.593C53.0036 17.8383 52.7143 18.1009 52.3649 17.9695C52.2684 17.9353 52.2005 17.8099 52.1842 17.7126C52.1683 17.0105 52.4924 16.36 52.8067 15.7266L52.8872 15.5609C53.7912 14.0884 54.842 12.3533 56.3852 11.1491C56.6452 10.9661 56.9274 10.8123 57.2253 10.9323C57.2938 10.9949 57.3736 11.1034 57.3736 11.2118C57.3736 11.2462 57.3423 11.3374 57.3243 11.3658C56.8933 12.0453 56.4828 12.7587 56.0836 13.4435C55.3036 14.7963 54.4943 16.1945 53.4827 17.4218Z" fill="white"/>
</svg>
