<svg width="111" height="18" viewBox="0 0 111 18" fill="none" xmlns="http://www.w3.org/2000/svg">
<g clip-path="url(#clip0_679_1198)">
<path d="M28.1979 5.19129V11.4492L15.7344 12.7264V16.2321L32.9122 17.9562V4.71875L28.1979 5.19129Z" fill="white"/>
<path d="M11 -0.03125V13.1679L15.7335 12.6953V6.42464L28.197 5.19221V1.67372L11 -0.03125Z" fill="white"/>
<path d="M28.1979 5.19531L15.7344 6.42774V12.6985L28.1979 11.4213V5.19531Z" fill="#192540"/>
<path d="M41.5513 9.71321C41.5513 8.52771 42.0205 7.39076 42.8557 6.55248C43.6909 5.7142 44.8237 5.24326 46.0048 5.24326H46.043C46.9082 5.22395 47.7593 5.46555 48.4863 5.93683C49.2133 6.40811 49.7828 7.0874 50.1211 7.88692L48.467 8.59573C48.2769 8.10884 47.9426 7.69223 47.5091 7.40217C47.0756 7.11211 46.5638 6.96258 46.043 6.97377C45.6912 6.97293 45.3428 7.04164 45.0175 7.17596C44.6922 7.31029 44.3965 7.50761 44.1471 7.75666C43.8978 8.0057 43.6998 8.30159 43.5645 8.62744C43.4291 8.95328 43.359 9.3027 43.3581 9.65574C43.3581 9.65574 43.3581 9.69406 43.3581 9.71321C43.3522 10.0705 43.4165 10.4254 43.5473 10.7577C43.6781 11.09 43.8728 11.3932 44.1204 11.6499C44.3679 11.9067 44.6634 12.112 44.99 12.2541C45.3167 12.3962 45.668 12.4724 46.0239 12.4782H46.0748C46.6025 12.4776 47.1174 12.3153 47.5506 12.0129C47.9839 11.7104 48.3147 11.2824 48.4988 10.786L50.1657 11.4948C49.8297 12.3099 49.255 13.0034 48.5176 13.4834C47.7803 13.9635 46.9151 14.2075 46.0366 14.1832C45.4518 14.1882 44.8717 14.0776 44.3294 13.8576C43.7871 13.6376 43.2934 13.3126 42.8763 12.9011C42.4592 12.4896 42.1269 11.9996 41.8985 11.4592C41.6701 10.9188 41.5499 10.3385 41.5449 9.75153V9.71321" fill="white"/>
<path d="M58.7291 9.71214C58.7291 9.18801 58.5742 8.67566 58.2841 8.23986C57.994 7.80406 57.5816 7.4644 57.0992 7.26382C56.6167 7.06325 56.0859 7.01077 55.5737 7.11302C55.0615 7.21527 54.5911 7.46766 54.2218 7.83828C53.8526 8.20889 53.6011 8.68109 53.4992 9.19515C53.3973 9.7092 53.4496 10.242 53.6495 10.7263C53.8493 11.2105 54.1877 11.6244 54.6219 11.9156C55.0561 12.2068 55.5666 12.3622 56.0888 12.3622C56.789 12.3622 57.4606 12.083 57.9558 11.586C58.4509 11.089 58.7291 10.415 58.7291 9.71214ZM51.6289 9.71214C51.6289 8.82807 51.8901 7.96385 52.3795 7.22877C52.8688 6.49369 53.5644 5.92076 54.3781 5.58244C55.1919 5.24412 56.0874 5.1556 56.9513 5.32808C57.8152 5.50055 58.6087 5.92627 59.2315 6.55141C59.8544 7.17654 60.2785 7.97301 60.4504 8.8401C60.6222 9.70718 60.534 10.6059 60.1969 11.4227C59.8599 12.2395 59.289 12.9376 58.5567 13.4288C57.8243 13.9199 56.9633 14.1821 56.0824 14.1821C54.9013 14.1821 53.7685 13.7112 52.9333 12.8729C52.0981 12.0346 51.6289 10.8976 51.6289 9.71214Z" fill="white"/>
<path d="M62.0117 5.3995H63.8377V6.43397C64.1317 6.03985 64.5173 5.72385 64.9608 5.5135C65.4044 5.30315 65.8925 5.20482 66.3825 5.22708C66.9541 5.18415 67.5259 5.30773 68.0293 5.58298C68.5326 5.85824 68.9461 6.27346 69.2201 6.7788C69.5292 6.29484 69.9574 5.899 70.4634 5.62944C70.9693 5.35989 71.5359 5.22571 72.1085 5.23986C74.4498 5.23986 75.6713 6.65747 75.6713 8.8669V14.0457H73.7945V8.97546C73.7945 7.69833 73.0883 6.83627 71.7967 6.83627C70.6452 6.83627 69.7481 7.62809 69.7481 9.16703V14.0329H67.8967V8.88606C67.9281 8.61721 67.9002 8.34473 67.8149 8.08793C67.7297 7.83113 67.5892 7.5963 67.4034 7.40008C67.2176 7.20387 66.9911 7.05108 66.7399 6.95254C66.4887 6.854 66.219 6.81212 65.9499 6.82988C64.7475 6.82988 63.8504 7.64086 63.8504 9.23089V14.0329H62.0117V5.3995Z" fill="white"/>
<path d="M85.8203 9.71321C85.8203 8.52771 86.2895 7.39076 87.1247 6.55248C87.9599 5.7142 89.0927 5.24326 90.2738 5.24326H90.312C91.1772 5.22395 92.0284 5.46555 92.7554 5.93683C93.4824 6.40811 94.0518 7.0874 94.3902 7.88692L92.736 8.59573C92.546 8.10884 92.2116 7.69223 91.7781 7.40217C91.3446 7.11211 90.8329 6.96258 90.312 6.97377C89.9603 6.97293 89.6118 7.04164 89.2865 7.17596C88.9612 7.31029 88.6655 7.50761 88.4162 7.75666C88.1669 8.0057 87.9689 8.30159 87.8335 8.62744C87.6981 8.95328 87.628 9.3027 87.6272 9.65574C87.6272 9.65574 87.6272 9.69406 87.6272 9.71321C87.6213 10.0705 87.6856 10.4254 87.8163 10.7577C87.9471 11.09 88.1418 11.3932 88.3894 11.6499C88.6369 11.9067 88.9325 12.112 89.2591 12.2541C89.5857 12.3962 89.937 12.4724 90.2929 12.4782H90.3438C90.8715 12.4776 91.3865 12.3153 91.8197 12.0129C92.2529 11.7104 92.5837 11.2824 92.7678 10.786L94.4347 11.4948C94.0991 12.3089 93.5254 13.0016 92.7893 13.4816C92.0533 13.9616 91.1895 14.2062 90.312 14.1832C89.7272 14.1882 89.147 14.0776 88.6048 13.8576C88.0625 13.6376 87.5688 13.3126 87.1517 12.9011C86.7346 12.4896 86.4023 11.9996 86.1739 11.4592C85.9454 10.9188 85.8253 10.3385 85.8203 9.75153V9.71321Z" fill="white"/>
<path d="M102.659 9.71214C102.659 9.18801 102.504 8.67566 102.214 8.23986C101.924 7.80406 101.512 7.4644 101.029 7.26382C100.547 7.06325 100.016 7.01077 99.5039 7.11302C98.9917 7.21527 98.5213 7.46766 98.152 7.83828C97.7828 8.20889 97.5313 8.68109 97.4294 9.19515C97.3275 9.7092 97.3798 10.242 97.5797 10.7263C97.7795 11.2105 98.1179 11.6244 98.5521 11.9156C98.9863 12.2068 99.4968 12.3622 100.019 12.3622C100.719 12.3622 101.391 12.083 101.886 11.586C102.381 11.089 102.659 10.415 102.659 9.71214ZM95.5527 9.71214C95.5527 8.82807 95.8139 7.96385 96.3033 7.22877C96.7927 6.49369 97.4882 5.92076 98.302 5.58244C99.1157 5.24412 100.011 5.1556 100.875 5.32808C101.739 5.50055 102.533 5.92627 103.155 6.55141C103.778 7.17654 104.202 7.97301 104.374 8.8401C104.546 9.70718 104.458 10.6059 104.121 11.4227C103.784 12.2395 103.213 12.9376 102.481 13.4288C101.748 13.9199 100.887 14.1821 100.006 14.1821C98.8251 14.1821 97.6923 13.7112 96.8571 12.8729C96.0219 12.0346 95.5527 10.8976 95.5527 9.71214Z" fill="white"/>
<path d="M105.91 5.40332H107.749V6.73153C107.973 6.30564 108.315 5.95378 108.734 5.71818C109.153 5.48258 109.63 5.37325 110.109 5.40332H111.121V7.15937H109.848C108.353 7.15937 107.768 7.95119 107.768 9.71363V13.9984H105.91V5.40332Z" fill="white"/>
<path d="M77.25 12.1747L78.9042 11.3127C79.1195 11.7074 79.4386 12.0352 79.8268 12.2604C80.2149 12.4856 80.6572 12.5995 81.1055 12.5898C82.1362 12.5898 82.6706 12.0534 82.6706 11.4532C82.6706 10.8529 81.6717 10.5847 80.5901 10.3548C79.1268 10.0419 77.6126 9.56301 77.6126 7.80057C77.6126 6.43404 78.8851 5.17607 80.9337 5.19522C81.6042 5.15296 82.2742 5.28468 82.8793 5.5777C83.4844 5.87072 84.0041 6.31518 84.3884 6.86826L82.8551 7.71117C82.6456 7.39876 82.3607 7.14471 82.0269 6.97275C81.6932 6.80078 81.3214 6.7165 80.9464 6.72778C79.9667 6.72778 79.464 7.21309 79.464 7.76225C79.464 8.31142 80.2529 8.55408 81.4936 8.83504C82.906 9.14794 84.5029 9.61409 84.5029 11.3893C84.5029 12.5834 83.4722 14.1862 81.0291 14.1671C80.2772 14.2208 79.5253 14.0613 78.8594 13.7068C78.1934 13.3523 77.6401 12.817 77.2627 12.162" fill="white"/>
</g>
<defs>
<clipPath id="clip0_679_1198">
<rect width="110.047" height="17.9884" fill="white"/>
</clipPath>
</defs>
</svg>
