<svg width="35" height="40" viewBox="0 0 35 40" fill="none" xmlns="http://www.w3.org/2000/svg">
<path d="M19.8919 29.4737C15.2278 29.4737 11.3359 26.1785 10.471 21.8154L0.0308879 23.7986C1.82239 33.0435 10.0386 40 19.9228 40C25.5444 40 30.61 37.7422 34.2857 34.0809L25.7297 27.5515C24.0927 28.7414 22.0849 29.4737 19.8919 29.4737ZM19.8919 10.4958C22.0849 10.4958 24.0927 11.2281 25.6988 12.4485L34.2548 5.91915C30.5792 2.28833 25.5135 0 19.8919 0C10.0386 0 1.79151 6.95652 0 16.2014L10.4402 18.2456C11.305 13.8215 15.1969 10.4958 19.8919 10.4958Z" fill="white"/>
</svg>
