<svg width="32" height="32" viewBox="0 0 32 32" fill="none" xmlns="http://www.w3.org/2000/svg">
<g clip-path="url(#clip0_679_1313)">
<rect y="-0.000244141" width="32" height="32" rx="9.08333" fill="#05102A"/>
<path fill-rule="evenodd" clip-rule="evenodd" d="M8 16.0005C8 12.8048 8 11.207 8.7615 10.0561C9.10155 9.54217 9.54168 9.10204 10.0556 8.76199C11.2065 8.00049 12.8043 8.00049 16 8.00049C19.1957 8.00049 20.7935 8.00049 21.9444 8.76199C22.4583 9.10204 22.8984 9.54217 23.2385 10.0561C24 11.207 24 12.8048 24 16.0005C24 19.1962 24 20.794 23.2385 21.9449C22.8984 22.4588 22.4583 22.8989 21.9444 23.239C20.7935 24.0005 19.1957 24.0005 16 24.0005C12.8043 24.0005 11.2065 24.0005 10.0556 23.239C9.54168 22.8989 9.10155 22.4588 8.7615 21.9449C8 20.794 8 19.1962 8 16.0005ZM20.1416 15.9998C20.1416 18.2872 18.2873 20.1415 15.9999 20.1415C13.7125 20.1415 11.8582 18.2872 11.8582 15.9998C11.8582 13.7124 13.7125 11.8581 15.9999 11.8581C18.2873 11.8581 20.1416 13.7124 20.1416 15.9998ZM15.9999 18.7402C17.5134 18.7402 18.7404 17.5133 18.7404 15.9998C18.7404 14.4863 17.5134 13.2593 15.9999 13.2593C14.4864 13.2593 13.2595 14.4863 13.2595 15.9998C13.2595 17.5133 14.4864 18.7402 15.9999 18.7402ZM20.305 12.6235C20.8425 12.6235 21.2782 12.1878 21.2782 11.6504C21.2782 11.1129 20.8425 10.6772 20.305 10.6772C19.7676 10.6772 19.3319 11.1129 19.3319 11.6504C19.3319 12.1878 19.7676 12.6235 20.305 12.6235Z" fill="#FDFDFD"/>
</g>
<defs>
<clipPath id="clip0_679_1313">
<rect width="32" height="32" rx="8" fill="white"/>
</clipPath>
</defs>
</svg>
