<svg width="226" height="27" viewBox="0 0 226 27" fill="none" xmlns="http://www.w3.org/2000/svg">
<path d="M18 10H14.6508V8.00005C14.6508 6.96805 14.7306 6.31805 16.1359 6.31805H17.9107V3.13806C17.047 3.04406 16.1786 2.99806 15.3093 3.00006C12.7316 3.00006 10.8504 4.65706 10.8504 7.69905V10H8V14L10.8504 13.999V23H14.6508V13.997L17.5639 13.996L18 10Z" fill="white"/>
<path d="M208.13 22H204V9.72727H208.13V22ZM206.066 8.09091C204.924 8.09091 204 7.17373 204 6.04464C204 4.91555 204.925 4 206.066 4C207.204 4 208.13 4.91718 208.13 6.04464C208.13 7.17373 207.204 8.09091 206.066 8.09091ZM223 22H219.029V16.0273C219.029 14.6028 219.002 12.7709 216.965 12.7709C214.897 12.7709 214.579 14.3222 214.579 15.9242V22H210.609V9.71827H214.42V11.3964H214.474C215.004 10.4309 216.3 9.41309 218.233 9.41309C222.257 9.41309 223 11.9568 223 15.2639V22Z" fill="white"/>
<path d="M64.6481 11.9862L71.9342 3.51758H70.2076L63.8811 10.8708L58.828 3.51758H53L60.6411 14.6369L53 23.5176H54.7267L61.4077 15.7524L66.744 23.5176H72.5721L64.6476 11.9862H64.6481ZM62.2831 14.7349L61.5089 13.6276L55.3488 4.81726H58.0009L62.9722 11.9275L63.7464 13.0348L70.2084 22.277H67.5564L62.2831 14.7353V14.7349Z" fill="white"/>
<path d="M109.722 5C107.115 5 105 7.11461 105 9.72222V17.2778C105 19.8854 107.115 22 109.722 22H117.278C119.885 22 122 19.8854 122 17.2778V9.72222C122 7.11461 119.885 5 117.278 5H109.722ZM119.167 6.88889C119.688 6.88889 120.111 7.312 120.111 7.83333C120.111 8.35467 119.688 8.77778 119.167 8.77778C118.645 8.77778 118.222 8.35467 118.222 7.83333C118.222 7.312 118.645 6.88889 119.167 6.88889ZM113.5 8.77778C116.108 8.77778 118.222 10.8924 118.222 13.5C118.222 16.1076 116.108 18.2222 113.5 18.2222C110.892 18.2222 108.778 16.1076 108.778 13.5C108.778 10.8924 110.892 8.77778 113.5 8.77778ZM113.5 10.6667C112.749 10.6667 112.028 10.9652 111.497 11.4965C110.965 12.0279 110.667 12.7486 110.667 13.5C110.667 14.2514 110.965 14.9721 111.497 15.5035C112.028 16.0348 112.749 16.3333 113.5 16.3333C114.251 16.3333 114.972 16.0348 115.503 15.5035C116.035 14.9721 116.333 14.2514 116.333 13.5C116.333 12.7486 116.035 12.0279 115.503 11.4965C114.972 10.9652 114.251 10.6667 113.5 10.6667Z" fill="white"/>
<path d="M171.1 7.875C171.1 7.875 168.4 7 163 7C157.6 7 154.9 7.875 154.9 7.875C154.9 7.875 154 10.5 154 14C154 17.5 154.9 20.125 154.9 20.125C154.9 20.125 157.6 21 163 21C168.4 21 171.1 20.125 171.1 20.125C171.1 20.125 172 17.5 172 14C172 10.5 171.1 7.875 171.1 7.875ZM161.2 17.031V10.969L166.6 14L161.2 17.031Z" fill="white"/>
</svg>
