<svg width="32" height="32" viewBox="0 0 32 32" fill="none" xmlns="http://www.w3.org/2000/svg">
<g clip-path="url(#clip0_679_1320)">
<rect y="-0.000244141" width="32" height="32" rx="9.08333" fill="#05102A"/>
<path d="M16.3901 22.2044L12.7793 22.1369C11.6102 22.1134 10.4381 22.1603 9.29196 21.9167C7.54835 21.5527 7.42482 19.7679 7.29557 18.2708C7.11747 16.166 7.18642 14.0231 7.52251 11.9359C7.71225 10.7648 8.45895 10.066 9.61369 9.98991C13.5118 9.71393 17.4358 9.74664 21.3252 9.87539C21.736 9.88719 22.1496 9.95171 22.5547 10.0251C24.554 10.3833 24.6028 12.4059 24.7324 14.1085C24.8617 15.8287 24.8071 17.5577 24.56 19.2662C24.3618 20.6808 23.9826 21.867 22.3823 21.9816C20.3772 22.1313 18.4181 22.2519 16.4073 22.2135C16.4074 22.2044 16.3958 22.2044 16.3901 22.2044ZM14.2673 18.6231C15.7783 17.7365 17.2605 16.8647 18.7629 15.984C17.249 15.0974 15.7697 14.2256 14.2673 13.345V18.6231Z" fill="#FDFDFD"/>
</g>
<defs>
<clipPath id="clip0_679_1320">
<rect width="32" height="32" rx="8" fill="white"/>
</clipPath>
</defs>
</svg>
